<svg width="21" height="21" viewBox="0 0 21 21" fill="none" xmlns="http://www.w3.org/2000/svg">
<path d="M20.1281 7.33594L18.5656 5.8125C18.214 5.42188 17.589 5.42188 17.2374 5.8125L7.90149 15.1484L3.52649 10.8125C3.17493 10.4219 2.58899 10.4219 2.19836 10.8125L0.674927 12.3359C0.284302 12.7266 0.284302 13.3125 0.674927 13.6641L7.23743 20.2266C7.58899 20.6172 8.17493 20.6172 8.52649 20.2266L20.089 8.66406C20.4796 8.3125 20.4796 7.72656 20.1281 7.33594ZM7.43274 11.4766C7.66711 11.75 8.0968 11.75 8.33118 11.4766L16.4562 3.35156C16.6906 3.11719 16.6906 2.72656 16.4562 2.45312L14.6984 0.695312C14.4249 0.460938 14.0343 0.460938 13.7999 0.695312L7.90149 6.63281L5.71399 4.44531C5.47961 4.21094 5.08899 4.21094 4.85461 4.44531L3.05774 6.20312C2.82336 6.47656 2.82336 6.86719 3.05774 7.10156L7.43274 11.4766Z" fill="#707070"/>
</svg>
